<svg width="512" height="512" viewBox="0 0 512 512" fill="none" xmlns="http://www.w3.org/2000/svg">
<path d="M83.9844 183.023C83.9844 172.947 75.8162 164.779 65.7403 164.779C55.6643 164.779 47.4961 172.947 47.4961 183.023V328.977C47.4961 339.053 55.6643 347.221 65.7403 347.221C75.8162 347.221 83.9844 339.053 83.9844 328.977V183.023Z" fill="#2A2A35"/>
<path d="M146.536 130.897C146.536 120.821 138.368 112.653 128.292 112.653C118.216 112.653 110.048 120.821 110.048 130.897V381.103C110.048 391.179 118.216 399.347 128.292 399.347C138.368 399.347 146.536 391.179 146.536 381.103V130.897Z" fill="#3A3A48"/>
<path d="M209.087 65.7393C209.087 55.6633 200.919 47.4951 190.843 47.4951C180.767 47.4951 172.599 55.6633 172.599 65.7393V446.26C172.599 456.336 180.767 464.505 190.843 464.505C200.919 464.505 209.087 456.336 209.087 446.26V65.7393Z" fill="#4A4A5C"/>
<path d="M242.97 464.505L438.443 47.4951" stroke="url(#paint0_linear_1516_98)" stroke-width="30" stroke-linecap="round"/>
<path d="M422.805 209.086C422.805 199.01 414.637 190.842 404.561 190.842C394.485 190.842 386.316 199.01 386.316 209.086V302.914C386.316 312.99 394.485 321.158 404.561 321.158C414.637 321.158 422.805 312.99 422.805 302.914V209.086Z" fill="#7C3AED"/>
<path d="M485.356 235.149C485.356 225.073 477.188 216.905 467.112 216.905C457.036 216.905 448.868 225.073 448.868 235.149V276.85C448.868 286.926 457.036 295.095 467.112 295.095C477.188 295.095 485.356 286.926 485.356 276.85V235.149Z" fill="#A78BFA"/>
<path opacity="0.15" d="M256 490.568C385.548 490.568 490.567 385.548 490.567 256C490.567 126.452 385.548 21.4321 256 21.4321C126.451 21.4321 21.4316 126.452 21.4316 256C21.4316 385.548 126.451 490.568 256 490.568Z" fill="url(#paint1_radial_1516_98)"/>
<defs>
<linearGradient id="paint0_linear_1516_98" x1="242.97" y1="464.505" x2="438.443" y2="47.4951" gradientUnits="userSpaceOnUse">
<stop stop-color="#00E5FF"/>
<stop offset="1" stop-color="#7C3AED"/>
</linearGradient>
<radialGradient id="paint1_radial_1516_98" cx="0" cy="0" r="1" gradientUnits="userSpaceOnUse" gradientTransform="translate(256 256) rotate(90) scale(234.568)">
<stop stop-color="#00E5FF"/>
<stop offset="1" stop-color="#7C3AED" stop-opacity="0"/>
</radialGradient>
</defs>
</svg>
